<svg xmlns="http://www.w3.org/2000/svg" width="144" height="54" fill="none"><path fill="#fff" d="M137.582 36.922c-1.512 0-2.866-.215-4.07-.644-1.185-.43-2.137-1.04-2.86-1.83l2.501-2.217c.583.55 1.279.971 2.086 1.261a7.403 7.403 0 0 0 2.548.439c.276 0 .542-.027.799-.079.275-.051.507-.12.695-.205a1.61 1.61 0 0 0 .49-.36.746.746 0 0 0 .181-.514c0-.327-.205-.584-.617-.775a10.768 10.768 0 0 0-1.106-.308 99.62 99.62 0 0 0-1.521-.336 18.586 18.586 0 0 1-2.497-.617c-.705-.257-1.297-.574-1.778-.952a3.875 3.875 0 0 1-.952-1.237c-.224-.463-.336-1.004-.336-1.624 0-.62.163-1.21.49-1.727.326-.532.78-.98 1.366-1.34a6.594 6.594 0 0 1 2.011-.85 8.986 8.986 0 0 1 2.37-.308c.826 0 1.633.084 2.422.257.789.154 1.536.387 2.24.695a6.762 6.762 0 0 1 1.854 1.134l-2.111 2.474a7.229 7.229 0 0 0-1.315-.798 7.87 7.87 0 0 0-1.596-.566 6 6 0 0 0-1.624-.232 7.03 7.03 0 0 0-.849.05 1.917 1.917 0 0 0-.671.207 1.293 1.293 0 0 0-.463.335.688.688 0 0 0-.154.463c0 .154.042.3.13.439a.937.937 0 0 0 .387.335c.242.154.592.293 1.055.412.481.12 1.082.247 1.802.387 1.049.223 1.941.48 2.678.774.738.275 1.331.61 1.778 1.004.36.275.626.617.798 1.031.173.396.257.832.257 1.313 0 .877-.284 1.657-.849 2.343-.55.672-1.306 1.204-2.268 1.597-.943.378-2.043.566-3.298.566l-.003.003zm-26.934-.003c-1.665 0-3.126-.3-4.377-.901-1.237-.617-2.198-1.452-2.885-2.498-.686-1.065-1.031-2.278-1.031-3.633 0-1.082.197-2.062.593-2.936a6.755 6.755 0 0 1 1.648-2.268 7.458 7.458 0 0 1 2.473-1.47c.943-.345 1.965-.514 3.065-.514 1.101 0 2.044.172 2.936.514a6.639 6.639 0 0 1 2.319 1.418 6.32 6.32 0 0 1 1.545 2.19c.36.84.523 1.769.49 2.782l-.027 1.158h-12.339l-.592-2.395h9.581l-.439.514v-.514c-.051-.43-.242-.816-.565-1.158-.308-.345-.714-.611-1.209-.798a4.275 4.275 0 0 0-1.648-.309c-.774 0-1.46.13-2.062.387a2.98 2.98 0 0 0-1.418 1.134c-.326.514-.49 1.168-.49 1.957 0 .79.197 1.418.593 1.984.411.565.988 1.013 1.726 1.34.756.326 1.639.49 2.652.49.876 0 1.605-.103 2.189-.309a7.591 7.591 0 0 0 1.623-.826l1.853 2.68a9.611 9.611 0 0 1-1.88 1.107 9.572 9.572 0 0 1-2.113.644 10.6 10.6 0 0 1-2.214.233l.003-.003z"/><path fill="#fff" fill-rule="evenodd" d="M92.336 26.536v10.377h4.12V26.536h4.384v-3.305h-4.383v-3.762h-4.121v3.762h-6.174v-3.762h-4.12v3.762h-3.04v3.305h3.04v10.377h4.12V26.537h6.174z" clip-rule="evenodd"/><path fill="#fff" d="M47.238 29.71a7.006 7.006 0 0 0-11.921-4.584 6.941 6.941 0 0 0-2.077-1.419 6.928 6.928 0 0 0-2.848-.605 6.983 6.983 0 0 0-2.857.608v-.608h-4.148v13.68h4.148v-7.628a2.851 2.851 0 1 1 5.705 0v7.627h4.145V30.51c.009-.133.012-.266.012-.4 0-.132-.003-.268-.012-.399v-.556a2.857 2.857 0 0 1 2.857-2.858c1.578 0 2.754 1.183 2.848 2.674v7.811h4.148V30.51c.009-.133.012-.266.012-.4 0-.132-.003-.268-.012-.399zm13.263-6.679v1.404a6.976 6.976 0 0 0-4.61-1.736 7.005 7.005 0 0 0-7.005 7.007 7.005 7.005 0 0 0 7.005 7.007 6.97 6.97 0 0 0 4.61-1.736v1.736h4.145V23.031h-4.145zm-3.727 10.407a3.731 3.731 0 0 1 0-7.46 3.727 3.727 0 0 1 3.727 3.731 3.726 3.726 0 0 1-3.727 3.729zM74.04 23.102a6.95 6.95 0 0 0-2.86.611v-.61h-4.146v13.681h4.145V29.29a2.87 2.87 0 0 1 2.86-2.87h3.166v-3.318h-3.166zm51.908 0a6.954 6.954 0 0 0-2.86.611v-.61h-4.145v13.681h4.145V29.29a2.87 2.87 0 0 1 2.86-2.87h3.166v-3.318h-3.166z"/><path fill="url(#a)" fill-rule="evenodd" d="m2.847 30.094.017-.012 3.175-2.156h7.898l-.554.376-.075.052-6.24 4.237H3.623a1.37 1.37 0 0 1-.776-2.497z" clip-rule="evenodd"/><path fill="#44D2FF" fill-rule="evenodd" d="M16.694 23.803c.69.218 1.332.543 1.907.957a6.763 6.763 0 0 1 2.823 5.5 6.773 6.773 0 0 1-6.77 6.77H3.272a3.27 3.27 0 0 1-1.941-5.905l1.516-1.03a1.377 1.377 0 0 0-.593 1.128 1.37 1.37 0 0 0 1.37 1.369h11.03a2.334 2.334 0 0 0 .027-4.665H2.936a2.904 2.904 0 0 1-1.721-5.238l1.175-.797a.896.896 0 0 0-.347.706c0 .492.4.891.892.891h11.766a6.759 6.759 0 0 1 1.993.314z" clip-rule="evenodd"/><path fill="url(#b)" fill-rule="evenodd" d="m2.39 21.892 5.974-4.05a5.47 5.47 0 0 1 3.011-.9c1.509 0 2.876.61 3.869 1.596a5.482 5.482 0 0 1 1.45 5.265 6.735 6.735 0 0 0-1.993-.314h-2.116l.007-.012a1.372 1.372 0 0 0-1.927-1.834l-.007.004a2.524 2.524 0 0 0-.051.035L7.94 23.489H2.936a.892.892 0 0 1-.546-1.597z" clip-rule="evenodd"/><path fill="#44D2FF" d="M19.16 12.14a.76.76 0 0 1 1.015.838l-.784 4.673a.76.76 0 0 1-1.233.46l-3.655-3.015a.76.76 0 0 1 .218-1.299l4.439-1.657z"/><defs><linearGradient id="a" x1="11.923" x2="2.852" y1="26.7" y2="31.07" gradientUnits="userSpaceOnUse"><stop stop-color="#0D96C1"/><stop offset="1" stop-color="#30C1EE"/></linearGradient><linearGradient id="b" x1="14.338" x2="9.456" y1="23.565" y2="18.067" gradientUnits="userSpaceOnUse"><stop stop-color="#0D96C1"/><stop offset="1" stop-color="#30C1EE"/></linearGradient></defs></svg>