<svg xmlns="http://www.w3.org/2000/svg" version="1.1" xmlns:xlink="http://www.w3.org/1999/xlink" xmlns:svgjs="http://svgjs.dev/svgjs" width="1000" height="1000" viewBox="0 0 1000 1000"><rect width="1000" height="1000" fill="#191fc3"></rect><g transform="matrix(0.7,0,0,0.7,149.57605563665675,309.62955024369535)"><svg viewBox="0 0 396 216" data-background-color="#191fc3" preserveAspectRatio="xMidYMid meet" height="545" width="1000" xmlns="http://www.w3.org/2000/svg" xmlns:xlink="http://www.w3.org/1999/xlink"><g id="tight-bounds" transform="matrix(1,0,0,1,0.24008861730862918,-0.21465416484954858)"><svg viewBox="0 0 395.52 216.42927174552256" height="216.42927174552256" width="395.52"><g><svg viewBox="0 0 395.52 216.42927174552256" height="216.42927174552256" width="395.52"><g><svg viewBox="0 0 395.52 216.42927174552256" height="216.42927174552256" width="395.52"><g id="textblocktransform"><svg viewBox="0 0 395.52 216.42927174552256" height="216.42927174552256" width="395.52" id="textblock"><g><svg viewBox="0 0 395.52 216.42927174552256" height="216.42927174552256" width="395.52"><path d="M394.594 46.42C392.735 23.955 387.435 17.709 387.435 17.709 371.165-5.43 350.86-0.443 332.619 2.882 300.414 3.017 268.339 7.959 236.208 10.61 168.767 11.015 100.749 4.365 33.643 20.765 27.339 25.797-6.54 21.753 1.121 49.295 3.129 60.753 10.456 73.468 10.232 83.982 11.236 85.824 12.631 81.601 13.226 84.251 15.309 91.395 18.711 88.026 21.501 92.249 17.614 103.527 20.403 112.917 23.062 122.757 18.377 125.318 12.371 124.105 9.675 132.597 9.396 138.752 7.89 137.584 6.235 137.314 5.026 137.135 2.59 137.809 2.999 139.741 4.394 146.346-1.594 150.165 2.162 156.635-0.422 163.644 3.948 169.709 3.353 177.303 3.278 178.83 3.687 180.133 4.338 180.493 7.22 182.425 3.018 186.199 3.464 190.288 33.029 218.234 65.104 198.914 95.394 211.764 103.259 202.778 97.346 214.954 100.489 213.067 102.943 210.866 104.728 219.987 107.499 214.82 107.927 213.337 107.276 209.832 108.8 210.506 109.6 210.866 110.307 210.776 110.418 208.709 110.586 205.609 109.117 207.541 108.726 205.923 112.947 197.746 111.906 217.201 115.866 216.392 115.68 214.011 114.528 210.596 116.889 211.046 119.232 207.631 119.306 204.8 121.389 212.483 121.463 214.146 121.835 215.314 122.43 216.123 128.938 207.766 135.409 219.088 142.233 215.314 146.417 211.18 150.433 217.56 154.672 215.988 156.16 214.73 157.666 212.483 159.098 216.257 176.632 217.066 195.319 213.696 211.943 216.392 256.364 211.36 303.835 218.459 350.674 211.809 361.719 209.248 373.192 205.609 383.958 202.688 383.958 202.688 392.679 194.691 392.679 158.746S394.538 127.295 394.817 98.674C395.096 70.053 396.398 68.885 394.538 46.42Z" opacity="1" fill="#2c2c6a" data-fill-palette-color="tertiary"></path><g transform="matrix(1,0,0,1,55.76832,26.230666666666668)"><svg width="283.98335999999995" viewBox="1.7999999523162842 -35.5 62.35000228881836 36" height="163.96793841218923" data-palette-color="#ffc708"><path d="M16.05 0.5L16.05 0.5Q11.4 0.5 8.28-0.88 5.15-2.25 3.53-4.48 1.9-6.7 1.8-9.15L1.8-9.15Q1.8-9.6 2.1-9.9 2.4-10.2 2.85-10.2L2.85-10.2 7.3-10.2Q7.95-10.2 8.28-9.93 8.6-9.65 8.85-9.25L8.85-9.25Q9.15-8.3 10-7.38 10.85-6.45 12.33-5.85 13.8-5.25 16.05-5.25L16.05-5.25Q19.65-5.25 21.43-6.45 23.2-7.65 23.2-9.7L23.2-9.7Q23.2-11.15 22.25-12.03 21.3-12.9 19.33-13.63 17.35-14.35 14.1-15.15L14.1-15.15Q10.35-16.05 7.83-17.32 5.3-18.6 4.03-20.55 2.75-22.5 2.75-25.5L2.75-25.5Q2.75-28.4 4.33-30.65 5.9-32.9 8.83-34.2 11.75-35.5 15.8-35.5L15.8-35.5Q19.05-35.5 21.55-34.63 24.05-33.75 25.7-32.33 27.35-30.9 28.23-29.28 29.1-27.65 29.15-26.1L29.15-26.1Q29.15-25.7 28.88-25.38 28.6-25.05 28.1-25.05L28.1-25.05 23.45-25.05Q23.05-25.05 22.65-25.25 22.25-25.45 22-26L22-26Q21.7-27.55 20.05-28.65 18.4-29.75 15.8-29.75L15.8-29.75Q13.1-29.75 11.45-28.75 9.8-27.75 9.8-25.65L9.8-25.65Q9.8-24.25 10.63-23.33 11.45-22.4 13.28-21.7 15.1-21 18.1-20.2L18.1-20.2Q22.35-19.25 25.05-18 27.75-16.75 29-14.83 30.25-12.9 30.25-9.95L30.25-9.95Q30.25-6.65 28.48-4.33 26.7-2 23.5-0.75 20.3 0.5 16.05 0.5ZM49.95 0.5L49.95 0.5Q45.6 0.5 42.4-0.98 39.2-2.45 37.45-5.53 35.7-8.6 35.7-13.4L35.7-13.4 35.7-33.75Q35.7-34.3 36.05-34.65 36.4-35 36.9-35L36.9-35 41.45-35Q42-35 42.32-34.65 42.65-34.3 42.65-33.75L42.65-33.75 42.65-13.4Q42.65-9.3 44.6-7.33 46.55-5.35 49.95-5.35L49.95-5.35Q53.35-5.35 55.27-7.33 57.2-9.3 57.2-13.4L57.2-13.4 57.2-33.75Q57.2-34.3 57.55-34.65 57.9-35 58.45-35L58.45-35 62.95-35Q63.5-35 63.82-34.65 64.15-34.3 64.15-33.75L64.15-33.75 64.15-13.4Q64.15-8.6 62.42-5.53 60.7-2.45 57.52-0.98 54.35 0.5 49.95 0.5Z" opacity="1" transform="matrix(1,0,0,1,0,0)" fill="#ffc708" class="undefined-text-0" data-fill-palette-color="quaternary" id="text-0"></path></svg></g></svg></g></svg></g></svg></g><g></g></svg></g><defs></defs></svg><rect width="395.52" height="216.42927174552256" fill="none" stroke="none" visibility="hidden"></rect></g></svg></g></svg>